<mxfile host="app.diagrams.net" modified="2023-12-31T09:20:36.611Z" agent="Mozilla/5.0 (Windows NT 10.0; Win64; x64) AppleWebKit/537.36 (KHTML, like Gecko) Chrome/120.0.0.0 Safari/537.36" etag="lAjHDJvA6F1rclgNVgrO" version="22.1.16" type="github">
  <diagram name="第 1 页" id="JKsNDwGTZJd4t1BGAMxP">
    <mxGraphModel dx="1050" dy="522" grid="1" gridSize="10" guides="1" tooltips="1" connect="1" arrows="1" fold="1" page="1" pageScale="1" pageWidth="827" pageHeight="1169" math="0" shadow="0">
      <root>
        <mxCell id="0" />
        <mxCell id="1" parent="0" />
        <mxCell id="5LxI79Wvn2kBGhYc7Gg3-1" value="&lt;font style=&quot;vertical-align: inherit;&quot;&gt;&lt;font style=&quot;vertical-align: inherit;&quot;&gt;管理員&lt;/font&gt;&lt;/font&gt;" style="rounded=0;whiteSpace=wrap;html=1;" parent="1" vertex="1">
          <mxGeometry x="20" y="170" width="120" height="60" as="geometry" />
        </mxCell>
        <mxCell id="5LxI79Wvn2kBGhYc7Gg3-2" value="&lt;font style=&quot;vertical-align: inherit;&quot;&gt;&lt;font style=&quot;vertical-align: inherit;&quot;&gt;&lt;font style=&quot;vertical-align: inherit;&quot;&gt;&lt;font style=&quot;vertical-align: inherit;&quot;&gt;火車票&lt;/font&gt;&lt;/font&gt;&lt;/font&gt;&lt;/font&gt;" style="rounded=0;whiteSpace=wrap;html=1;" parent="1" vertex="1">
          <mxGeometry x="360" y="80" width="120" height="60" as="geometry" />
        </mxCell>
        <mxCell id="5LxI79Wvn2kBGhYc7Gg3-3" value="&lt;font style=&quot;vertical-align: inherit;&quot;&gt;&lt;font style=&quot;vertical-align: inherit;&quot;&gt;退票&lt;/font&gt;&lt;/font&gt;" style="rounded=0;whiteSpace=wrap;html=1;" parent="1" vertex="1">
          <mxGeometry x="360" y="170" width="120" height="60" as="geometry" />
        </mxCell>
        <mxCell id="5LxI79Wvn2kBGhYc7Gg3-4" value="&lt;font style=&quot;vertical-align: inherit;&quot;&gt;&lt;font style=&quot;vertical-align: inherit;&quot;&gt;&lt;font style=&quot;vertical-align: inherit;&quot;&gt;&lt;font style=&quot;vertical-align: inherit;&quot;&gt;訂單&lt;/font&gt;&lt;/font&gt;&lt;/font&gt;&lt;/font&gt;" style="rounded=0;whiteSpace=wrap;html=1;" parent="1" vertex="1">
          <mxGeometry x="360" y="350" width="120" height="60" as="geometry" />
        </mxCell>
        <mxCell id="5LxI79Wvn2kBGhYc7Gg3-5" value="&lt;font style=&quot;vertical-align: inherit;&quot;&gt;&lt;font style=&quot;vertical-align: inherit;&quot;&gt;用戶&lt;/font&gt;&lt;/font&gt;" style="rounded=0;whiteSpace=wrap;html=1;" parent="1" vertex="1">
          <mxGeometry x="700" y="170" width="120" height="60" as="geometry" />
        </mxCell>
        <mxCell id="5LxI79Wvn2kBGhYc7Gg3-6" value="&lt;font style=&quot;vertical-align: inherit;&quot;&gt;&lt;font style=&quot;vertical-align: inherit;&quot;&gt;改簽&lt;/font&gt;&lt;/font&gt;" style="rounded=0;whiteSpace=wrap;html=1;" parent="1" vertex="1">
          <mxGeometry x="360" y="260" width="120" height="60" as="geometry" />
        </mxCell>
        <mxCell id="5LxI79Wvn2kBGhYc7Gg3-7" value="&lt;font style=&quot;vertical-align: inherit;&quot;&gt;&lt;font style=&quot;vertical-align: inherit;&quot;&gt;新增&lt;/font&gt;&lt;/font&gt;" style="html=1;whiteSpace=wrap;aspect=fixed;shape=isoRectangle;" parent="1" vertex="1">
          <mxGeometry x="200" y="80" width="100" height="60" as="geometry" />
        </mxCell>
        <mxCell id="5LxI79Wvn2kBGhYc7Gg3-8" value="&lt;font style=&quot;vertical-align: inherit;&quot;&gt;&lt;font style=&quot;vertical-align: inherit;&quot;&gt;審核&lt;/font&gt;&lt;/font&gt;" style="html=1;whiteSpace=wrap;aspect=fixed;shape=isoRectangle;" parent="1" vertex="1">
          <mxGeometry x="200" y="260" width="100" height="60" as="geometry" />
        </mxCell>
        <mxCell id="5LxI79Wvn2kBGhYc7Gg3-9" value="&lt;font style=&quot;vertical-align: inherit;&quot;&gt;&lt;font style=&quot;vertical-align: inherit;&quot;&gt;填寫&lt;/font&gt;&lt;/font&gt;" style="html=1;whiteSpace=wrap;aspect=fixed;shape=isoRectangle;" parent="1" vertex="1">
          <mxGeometry x="540" y="170" width="100" height="60" as="geometry" />
        </mxCell>
        <mxCell id="5LxI79Wvn2kBGhYc7Gg3-10" value="&lt;font style=&quot;vertical-align: inherit;&quot;&gt;&lt;font style=&quot;vertical-align: inherit;&quot;&gt;回復&lt;/font&gt;&lt;/font&gt;" style="html=1;whiteSpace=wrap;aspect=fixed;shape=isoRectangle;" parent="1" vertex="1">
          <mxGeometry x="200" y="170" width="100" height="60" as="geometry" />
        </mxCell>
        <mxCell id="5LxI79Wvn2kBGhYc7Gg3-11" value="&lt;font style=&quot;vertical-align: inherit;&quot;&gt;&lt;font style=&quot;vertical-align: inherit;&quot;&gt;預定&lt;/font&gt;&lt;/font&gt;" style="html=1;whiteSpace=wrap;aspect=fixed;shape=isoRectangle;" parent="1" vertex="1">
          <mxGeometry x="540" y="80" width="100" height="60" as="geometry" />
        </mxCell>
        <mxCell id="5LxI79Wvn2kBGhYc7Gg3-12" value="&lt;font style=&quot;vertical-align: inherit;&quot;&gt;&lt;font style=&quot;vertical-align: inherit;&quot;&gt;申請&lt;/font&gt;&lt;/font&gt;" style="html=1;whiteSpace=wrap;aspect=fixed;shape=isoRectangle;" parent="1" vertex="1">
          <mxGeometry x="540" y="260" width="100" height="60" as="geometry" />
        </mxCell>
        <mxCell id="5LxI79Wvn2kBGhYc7Gg3-13" value="&lt;font style=&quot;vertical-align: inherit;&quot;&gt;&lt;font style=&quot;vertical-align: inherit;&quot;&gt;處理&lt;/font&gt;&lt;/font&gt;" style="html=1;whiteSpace=wrap;aspect=fixed;shape=isoRectangle;" parent="1" vertex="1">
          <mxGeometry x="200" y="350" width="100" height="60" as="geometry" />
        </mxCell>
        <mxCell id="5LxI79Wvn2kBGhYc7Gg3-14" value="&lt;font style=&quot;vertical-align: inherit;&quot;&gt;&lt;font style=&quot;vertical-align: inherit;&quot;&gt;查看&lt;/font&gt;&lt;/font&gt;" style="html=1;whiteSpace=wrap;aspect=fixed;shape=isoRectangle;" parent="1" vertex="1">
          <mxGeometry x="540" y="350" width="100" height="60" as="geometry" />
        </mxCell>
        <mxCell id="DllfcI0_vN3vCrYeNRHP-1" value="" style="endArrow=none;html=1;rounded=0;entryX=0.004;entryY=0.487;entryDx=0;entryDy=0;entryPerimeter=0;" edge="1" parent="1">
          <mxGeometry width="50" height="50" relative="1" as="geometry">
            <mxPoint x="139.6" y="170" as="sourcePoint" />
            <mxPoint x="200.00000000000009" y="109.22000000000003" as="targetPoint" />
          </mxGeometry>
        </mxCell>
        <mxCell id="DllfcI0_vN3vCrYeNRHP-24" value="&lt;b style=&quot;color: rgb(32, 33, 36); font-family: &amp;quot;Google Sans&amp;quot;, arial, sans-serif; font-size: 14px; text-align: left;&quot;&gt;⊥&lt;/b&gt;" style="edgeLabel;html=1;align=center;verticalAlign=middle;resizable=0;points=[];" vertex="1" connectable="0" parent="DllfcI0_vN3vCrYeNRHP-1">
          <mxGeometry x="-0.0724" y="1" relative="1" as="geometry">
            <mxPoint as="offset" />
          </mxGeometry>
        </mxCell>
        <mxCell id="DllfcI0_vN3vCrYeNRHP-3" value="" style="endArrow=none;html=1;rounded=0;" edge="1" parent="1">
          <mxGeometry width="50" height="50" relative="1" as="geometry">
            <mxPoint x="300" y="109.5" as="sourcePoint" />
            <mxPoint x="360" y="109.5" as="targetPoint" />
          </mxGeometry>
        </mxCell>
        <mxCell id="DllfcI0_vN3vCrYeNRHP-4" value="Ω" style="edgeLabel;html=1;align=center;verticalAlign=middle;resizable=0;points=[];" vertex="1" connectable="0" parent="DllfcI0_vN3vCrYeNRHP-3">
          <mxGeometry x="-0.0733" y="1" relative="1" as="geometry">
            <mxPoint as="offset" />
          </mxGeometry>
        </mxCell>
        <mxCell id="DllfcI0_vN3vCrYeNRHP-5" value="" style="endArrow=none;html=1;rounded=0;" edge="1" parent="1">
          <mxGeometry width="50" height="50" relative="1" as="geometry">
            <mxPoint x="300" y="199.5" as="sourcePoint" />
            <mxPoint x="360" y="199.5" as="targetPoint" />
          </mxGeometry>
        </mxCell>
        <mxCell id="DllfcI0_vN3vCrYeNRHP-6" value="Ω" style="edgeLabel;html=1;align=center;verticalAlign=middle;resizable=0;points=[];" vertex="1" connectable="0" parent="DllfcI0_vN3vCrYeNRHP-5">
          <mxGeometry x="-0.0733" y="1" relative="1" as="geometry">
            <mxPoint as="offset" />
          </mxGeometry>
        </mxCell>
        <mxCell id="DllfcI0_vN3vCrYeNRHP-7" value="" style="endArrow=none;html=1;rounded=0;" edge="1" parent="1">
          <mxGeometry width="50" height="50" relative="1" as="geometry">
            <mxPoint x="300" y="379.5" as="sourcePoint" />
            <mxPoint x="360" y="379.5" as="targetPoint" />
          </mxGeometry>
        </mxCell>
        <mxCell id="DllfcI0_vN3vCrYeNRHP-8" value="Ω" style="edgeLabel;html=1;align=center;verticalAlign=middle;resizable=0;points=[];" vertex="1" connectable="0" parent="DllfcI0_vN3vCrYeNRHP-7">
          <mxGeometry x="-0.0733" y="1" relative="1" as="geometry">
            <mxPoint as="offset" />
          </mxGeometry>
        </mxCell>
        <mxCell id="DllfcI0_vN3vCrYeNRHP-9" value="" style="endArrow=none;html=1;rounded=0;" edge="1" parent="1">
          <mxGeometry width="50" height="50" relative="1" as="geometry">
            <mxPoint x="300" y="289.5" as="sourcePoint" />
            <mxPoint x="360" y="289.5" as="targetPoint" />
          </mxGeometry>
        </mxCell>
        <mxCell id="DllfcI0_vN3vCrYeNRHP-10" value="Ω" style="edgeLabel;html=1;align=center;verticalAlign=middle;resizable=0;points=[];" vertex="1" connectable="0" parent="DllfcI0_vN3vCrYeNRHP-9">
          <mxGeometry x="-0.0733" y="1" relative="1" as="geometry">
            <mxPoint as="offset" />
          </mxGeometry>
        </mxCell>
        <mxCell id="DllfcI0_vN3vCrYeNRHP-15" value="" style="endArrow=none;html=1;rounded=0;" edge="1" parent="1">
          <mxGeometry width="50" height="50" relative="1" as="geometry">
            <mxPoint x="480" y="109.5" as="sourcePoint" />
            <mxPoint x="540" y="109.5" as="targetPoint" />
          </mxGeometry>
        </mxCell>
        <mxCell id="DllfcI0_vN3vCrYeNRHP-16" value="Ω" style="edgeLabel;html=1;align=center;verticalAlign=middle;resizable=0;points=[];" vertex="1" connectable="0" parent="DllfcI0_vN3vCrYeNRHP-15">
          <mxGeometry x="-0.0733" y="1" relative="1" as="geometry">
            <mxPoint as="offset" />
          </mxGeometry>
        </mxCell>
        <mxCell id="DllfcI0_vN3vCrYeNRHP-17" value="" style="endArrow=none;html=1;rounded=0;" edge="1" parent="1">
          <mxGeometry width="50" height="50" relative="1" as="geometry">
            <mxPoint x="480" y="199.5" as="sourcePoint" />
            <mxPoint x="540" y="199.5" as="targetPoint" />
          </mxGeometry>
        </mxCell>
        <mxCell id="DllfcI0_vN3vCrYeNRHP-18" value="Ω" style="edgeLabel;html=1;align=center;verticalAlign=middle;resizable=0;points=[];" vertex="1" connectable="0" parent="DllfcI0_vN3vCrYeNRHP-17">
          <mxGeometry x="-0.0733" y="1" relative="1" as="geometry">
            <mxPoint as="offset" />
          </mxGeometry>
        </mxCell>
        <mxCell id="DllfcI0_vN3vCrYeNRHP-19" value="" style="endArrow=none;html=1;rounded=0;" edge="1" parent="1">
          <mxGeometry width="50" height="50" relative="1" as="geometry">
            <mxPoint x="480" y="379.5" as="sourcePoint" />
            <mxPoint x="540" y="379.5" as="targetPoint" />
          </mxGeometry>
        </mxCell>
        <mxCell id="DllfcI0_vN3vCrYeNRHP-20" value="Ω" style="edgeLabel;html=1;align=center;verticalAlign=middle;resizable=0;points=[];" vertex="1" connectable="0" parent="DllfcI0_vN3vCrYeNRHP-19">
          <mxGeometry x="-0.0733" y="1" relative="1" as="geometry">
            <mxPoint as="offset" />
          </mxGeometry>
        </mxCell>
        <mxCell id="DllfcI0_vN3vCrYeNRHP-21" value="" style="endArrow=none;html=1;rounded=0;" edge="1" parent="1">
          <mxGeometry width="50" height="50" relative="1" as="geometry">
            <mxPoint x="480" y="289.5" as="sourcePoint" />
            <mxPoint x="540" y="289.5" as="targetPoint" />
          </mxGeometry>
        </mxCell>
        <mxCell id="DllfcI0_vN3vCrYeNRHP-22" value="Ω" style="edgeLabel;html=1;align=center;verticalAlign=middle;resizable=0;points=[];" vertex="1" connectable="0" parent="DllfcI0_vN3vCrYeNRHP-21">
          <mxGeometry x="-0.0733" y="1" relative="1" as="geometry">
            <mxPoint as="offset" />
          </mxGeometry>
        </mxCell>
        <mxCell id="DllfcI0_vN3vCrYeNRHP-25" value="" style="endArrow=none;html=1;rounded=0;" edge="1" parent="1">
          <mxGeometry width="50" height="50" relative="1" as="geometry">
            <mxPoint x="140" y="230" as="sourcePoint" />
            <mxPoint x="200" y="380" as="targetPoint" />
          </mxGeometry>
        </mxCell>
        <mxCell id="DllfcI0_vN3vCrYeNRHP-26" value="&lt;b style=&quot;color: rgb(32, 33, 36); font-family: &amp;quot;Google Sans&amp;quot;, arial, sans-serif; font-size: 14px; text-align: left;&quot;&gt;⊥&lt;/b&gt;" style="edgeLabel;html=1;align=center;verticalAlign=middle;resizable=0;points=[];" vertex="1" connectable="0" parent="DllfcI0_vN3vCrYeNRHP-25">
          <mxGeometry x="-0.0724" y="1" relative="1" as="geometry">
            <mxPoint as="offset" />
          </mxGeometry>
        </mxCell>
        <mxCell id="DllfcI0_vN3vCrYeNRHP-27" value="" style="endArrow=none;html=1;rounded=0;" edge="1" parent="1">
          <mxGeometry width="50" height="50" relative="1" as="geometry">
            <mxPoint x="140" y="230" as="sourcePoint" />
            <mxPoint x="200" y="290" as="targetPoint" />
          </mxGeometry>
        </mxCell>
        <mxCell id="DllfcI0_vN3vCrYeNRHP-28" value="&lt;b style=&quot;color: rgb(32, 33, 36); font-family: &amp;quot;Google Sans&amp;quot;, arial, sans-serif; font-size: 14px; text-align: left;&quot;&gt;⊥&lt;/b&gt;" style="edgeLabel;html=1;align=center;verticalAlign=middle;resizable=0;points=[];" vertex="1" connectable="0" parent="DllfcI0_vN3vCrYeNRHP-27">
          <mxGeometry x="-0.0724" y="1" relative="1" as="geometry">
            <mxPoint as="offset" />
          </mxGeometry>
        </mxCell>
        <mxCell id="DllfcI0_vN3vCrYeNRHP-29" value="" style="endArrow=none;html=1;rounded=0;" edge="1" parent="1">
          <mxGeometry width="50" height="50" relative="1" as="geometry">
            <mxPoint x="140" y="199.5" as="sourcePoint" />
            <mxPoint x="200" y="199.5" as="targetPoint" />
          </mxGeometry>
        </mxCell>
        <mxCell id="DllfcI0_vN3vCrYeNRHP-30" value="&lt;b style=&quot;color: rgb(32, 33, 36); font-family: &amp;quot;Google Sans&amp;quot;, arial, sans-serif; font-size: 14px; text-align: left;&quot;&gt;⊥&lt;/b&gt;" style="edgeLabel;html=1;align=center;verticalAlign=middle;resizable=0;points=[];" vertex="1" connectable="0" parent="DllfcI0_vN3vCrYeNRHP-29">
          <mxGeometry x="-0.0724" y="1" relative="1" as="geometry">
            <mxPoint as="offset" />
          </mxGeometry>
        </mxCell>
        <mxCell id="DllfcI0_vN3vCrYeNRHP-31" value="" style="endArrow=none;html=1;rounded=0;" edge="1" parent="1">
          <mxGeometry width="50" height="50" relative="1" as="geometry">
            <mxPoint x="640" y="110" as="sourcePoint" />
            <mxPoint x="700" y="170" as="targetPoint" />
          </mxGeometry>
        </mxCell>
        <mxCell id="DllfcI0_vN3vCrYeNRHP-32" value="&lt;b style=&quot;color: rgb(32, 33, 36); font-family: &amp;quot;Google Sans&amp;quot;, arial, sans-serif; font-size: 14px; text-align: left;&quot;&gt;⊥&lt;/b&gt;" style="edgeLabel;html=1;align=center;verticalAlign=middle;resizable=0;points=[];" vertex="1" connectable="0" parent="DllfcI0_vN3vCrYeNRHP-31">
          <mxGeometry x="-0.0724" y="1" relative="1" as="geometry">
            <mxPoint as="offset" />
          </mxGeometry>
        </mxCell>
        <mxCell id="DllfcI0_vN3vCrYeNRHP-33" value="" style="endArrow=none;html=1;rounded=0;" edge="1" parent="1">
          <mxGeometry width="50" height="50" relative="1" as="geometry">
            <mxPoint x="640" y="380" as="sourcePoint" />
            <mxPoint x="700" y="230" as="targetPoint" />
          </mxGeometry>
        </mxCell>
        <mxCell id="DllfcI0_vN3vCrYeNRHP-34" value="&lt;b style=&quot;color: rgb(32, 33, 36); font-family: &amp;quot;Google Sans&amp;quot;, arial, sans-serif; font-size: 14px; text-align: left;&quot;&gt;⊥&lt;/b&gt;" style="edgeLabel;html=1;align=center;verticalAlign=middle;resizable=0;points=[];" vertex="1" connectable="0" parent="DllfcI0_vN3vCrYeNRHP-33">
          <mxGeometry x="-0.0724" y="1" relative="1" as="geometry">
            <mxPoint as="offset" />
          </mxGeometry>
        </mxCell>
        <mxCell id="DllfcI0_vN3vCrYeNRHP-35" value="" style="endArrow=none;html=1;rounded=0;" edge="1" parent="1">
          <mxGeometry width="50" height="50" relative="1" as="geometry">
            <mxPoint x="640" y="290" as="sourcePoint" />
            <mxPoint x="700" y="230" as="targetPoint" />
          </mxGeometry>
        </mxCell>
        <mxCell id="DllfcI0_vN3vCrYeNRHP-36" value="&lt;b style=&quot;color: rgb(32, 33, 36); font-family: &amp;quot;Google Sans&amp;quot;, arial, sans-serif; font-size: 14px; text-align: left;&quot;&gt;⊥&lt;/b&gt;" style="edgeLabel;html=1;align=center;verticalAlign=middle;resizable=0;points=[];" vertex="1" connectable="0" parent="DllfcI0_vN3vCrYeNRHP-35">
          <mxGeometry x="-0.0724" y="1" relative="1" as="geometry">
            <mxPoint as="offset" />
          </mxGeometry>
        </mxCell>
        <mxCell id="DllfcI0_vN3vCrYeNRHP-37" value="" style="endArrow=none;html=1;rounded=0;" edge="1" parent="1">
          <mxGeometry width="50" height="50" relative="1" as="geometry">
            <mxPoint x="640" y="199.5" as="sourcePoint" />
            <mxPoint x="700" y="199.5" as="targetPoint" />
          </mxGeometry>
        </mxCell>
        <mxCell id="DllfcI0_vN3vCrYeNRHP-38" value="&lt;b style=&quot;color: rgb(32, 33, 36); font-family: &amp;quot;Google Sans&amp;quot;, arial, sans-serif; font-size: 14px; text-align: left;&quot;&gt;⊥&lt;/b&gt;" style="edgeLabel;html=1;align=center;verticalAlign=middle;resizable=0;points=[];" vertex="1" connectable="0" parent="DllfcI0_vN3vCrYeNRHP-37">
          <mxGeometry x="-0.0724" y="1" relative="1" as="geometry">
            <mxPoint as="offset" />
          </mxGeometry>
        </mxCell>
      </root>
    </mxGraphModel>
  </diagram>
</mxfile>
